<svg width="200" height="42" viewBox="0 0 200 42" fill="none" xmlns="http://www.w3.org/2000/svg">
<g clip-path="url(#clip0_1124_30368)">
<path d="M136.505 21.0733V13.9774H132.238V27.98H136.198L140.821 20.9427V27.98H145.087V13.9774H141.128L136.505 21.0733ZM111.892 19.6384C111.892 20.1473 111.638 21.1306 110.329 21.1306H108.818V17.4241H110.52C110.973 17.4241 111.892 17.7944 111.892 18.8883V19.6384ZM110.977 13.9774H104.315V27.98H108.818V24.5426H110.977C113.889 24.5426 116.275 22.9372 116.275 20.078V18.4393C116.275 15.5828 113.889 13.9774 110.977 13.9774ZM174.776 21.3864C174.776 23.5181 174.217 23.8272 173.411 24.1962C173.061 24.3601 172.108 24.3241 172.108 24.3241V27.98H173.874C177.665 27.98 179.065 25.771 179.122 20.8335C179.136 19.7143 179.114 18.6138 179.122 17.6292H181.648V27.98H186.153V13.9774H174.776V21.3864ZM98.2625 23.2689C98.2625 24.1962 97.5057 24.9557 96.5784 24.9557H96.1934C95.2661 24.9557 94.5067 24.1962 94.5067 23.2689V18.7284C94.5067 17.7998 95.2661 17.0443 96.1934 17.0443H96.5784C97.5057 17.0443 98.2625 17.7998 98.2625 18.7284V23.2689ZM97.4884 13.7495H95.2834C92.3683 13.7495 89.9821 15.8266 89.9821 19.0468V22.9545C89.9821 26.192 92.3683 28.2558 95.2834 28.2558H97.4884C100.398 28.2558 102.788 26.1734 102.788 22.9545V19.0468C102.788 15.6547 100.398 13.7495 97.4884 13.7495ZM159.923 13.9774H155.047L152.67 19.2667H151.563V13.9774H147.055V27.98H151.563V23.0011H152.666L155.098 27.98H160.267L156.447 20.9161L159.923 13.9774ZM165.503 22.6627H170.579V19.3319H165.503V17.6292H171.039V13.9774H161.003V27.98H171.456V24.3241H165.503V22.6627ZM194.069 24.5306H192.373V21.4743H193.884C195.158 21.4743 195.447 22.4083 195.447 23.0145C195.447 24.2722 194.411 24.5306 194.069 24.5306ZM194.529 18.0609H192.373V13.9774H187.868V27.98H194.529C197.443 27.98 199.829 26.3692 199.829 23.5141V22.5268C199.829 19.6677 197.443 18.0609 194.529 18.0609ZM125.762 19.1574H121.92V13.9774H117.415V27.98H121.92V23.0011H125.762V27.98H130.267V13.9774H125.762V19.1574ZM83.9494 19.1574H80.1083V13.9774H75.6037V27.98H80.1083V23.0011H83.9494V27.98H88.4566V13.9774H83.9494V19.1574ZM53.6698 32.6618C51.6447 34.6896 49.1865 36.1231 46.5086 36.8799V5.12276C49.1865 5.87819 51.6447 7.31176 53.6698 9.33555C56.7821 12.4505 58.4954 16.5954 58.4954 20.9987C58.4954 25.4073 56.7821 29.5495 53.6698 32.6618ZM21.0027 22.4056V5.43453L41.9987 19.6011V36.5681L21.0027 22.4056ZM16.4994 36.8799C13.8201 36.1271 11.3607 34.6896 9.33689 32.6618C6.22193 29.5495 4.50457 25.4073 4.50457 21.0013C4.50457 16.5954 6.22193 12.4505 9.33689 9.33555C11.3607 7.31176 13.8201 5.87819 16.4994 5.12276V36.8799ZM41.9987 0V14.1652L21.0027 0.00133232C9.4035 0.00133232 0 9.4035 0 21.0013C0 32.6018 9.4035 42 21.0027 42V27.8348L41.9987 42C53.6005 42 63.004 32.6018 63.004 20.9987C63.004 9.4035 53.6005 0 41.9987 0Z" fill="white"/>
</g>
<defs>
<clipPath id="clip0_1124_30368">
<rect width="199.829" height="42" fill="white"/>
</clipPath>
</defs>
</svg>
