<?xml version="1.0" standalone="no"?>
<!DOCTYPE svg PUBLIC "-//W3C//DTD SVG 20010904//EN"
 "http://www.w3.org/TR/2001/REC-SVG-20010904/DTD/svg10.dtd">
<svg version="1.0" xmlns="http://www.w3.org/2000/svg"
 width="700.000000pt" height="700.000000pt" viewBox="0 0 700.000000 700.000000"
 preserveAspectRatio="xMidYMid meet">
<metadata>
Created by potrace 1.14, written by Peter Selinger 2001-2017
</metadata>
<g transform="translate(0.000000,700.000000) scale(0.100000,-0.100000)"
fill="#000000" stroke="none">
<path d="M2177 5754 c-1 -1 -33 -5 -72 -9 -38 -4 -72 -8 -75 -10 -3 -1 -27 -6
-55 -9 -94 -13 -388 -96 -409 -117 -6 -5 -16 -9 -24 -9 -13 0 -223 -101 -297
-143 -212 -121 -468 -344 -626 -547 -56 -72 -90 -122 -187 -275 -23 -36 -119
-239 -145 -305 -55 -140 -112 -361 -131 -505 -25 -188 -25 -475 -1 -620 39
-227 75 -361 142 -530 275 -690 899 -1218 1608 -1361 140 -28 159 -31 285 -39
181 -13 168 -14 172 9 2 12 3 353 3 759 -1 405 2 737 6 737 4 0 14 -7 23 -15
8 -8 17 -15 21 -15 3 0 60 -37 126 -82 66 -46 127 -87 136 -93 9 -5 68 -45
132 -88 142 -95 105 -69 366 -245 1390 -935 1458 -979 1500 -976 22 1 81 5
130 8 50 3 106 8 125 11 299 47 541 128 775 258 656 366 1091 1036 1151 1777
12 144 6 435 -11 500 -2 8 -6 33 -10 55 -12 81 -16 102 -46 215 -150 566 -504
1040 -1005 1348 -70 42 -202 110 -309 158 -107 47 -386 125 -505 140 -30 4
-66 8 -80 10 -14 2 -78 7 -142 10 l-118 7 -2 -757 -3 -758 -93 64 c-51 35
-100 68 -109 73 -9 6 -54 36 -100 68 -46 31 -88 57 -93 57 -6 0 -10 4 -10 8 0
5 -12 15 -27 23 -16 8 -30 16 -33 19 -11 11 -99 70 -104 70 -3 0 -29 18 -58
40 -29 22 -58 40 -65 40 -6 0 -13 4 -15 8 -1 5 -77 58 -168 118 -91 61 -439
294 -773 518 l-608 407 -95 -3 c-53 -2 -96 -4 -97 -4z m190 -116 c-3 -8 -6 -5
-6 6 -1 11 2 17 5 13 3 -3 4 -12 1 -19z m0 -90 c-3 -7 -5 -2 -5 12 0 14 2 19
5 13 2 -7 2 -19 0 -25z m0 -120 c-3 -8 -6 -5 -6 6 -1 11 2 17 5 13 3 -3 4 -12
1 -19z m0 -120 c-3 -8 -6 -5 -6 6 -1 11 2 17 5 13 3 -3 4 -12 1 -19z m0 -70
c-3 -8 -6 -5 -6 6 -1 11 2 17 5 13 3 -3 4 -12 1 -19z m0 -80 c-3 -8 -6 -5 -6
6 -1 11 2 17 5 13 3 -3 4 -12 1 -19z m0 -130 c-3 -8 -6 -5 -6 6 -1 11 2 17 5
13 3 -3 4 -12 1 -19z m0 -80 c-3 -7 -5 -2 -5 12 0 14 2 19 5 13 2 -7 2 -19 0
-25z m0 -80 c-3 -8 -6 -5 -6 6 -1 11 2 17 5 13 3 -3 4 -12 1 -19z m0 -190 c-3
-8 -6 -5 -6 6 -1 11 2 17 5 13 3 -3 4 -12 1 -19z m0 -90 c-3 -7 -5 -2 -5 12 0
14 2 19 5 13 2 -7 2 -19 0 -25z m0 -120 c-3 -8 -6 -5 -6 6 -1 11 2 17 5 13 3
-3 4 -12 1 -19z m0 -120 c-3 -8 -6 -5 -6 6 -1 11 2 17 5 13 3 -3 4 -12 1 -19z
m0 -70 c-3 -8 -6 -5 -6 6 -1 11 2 17 5 13 3 -3 4 -12 1 -19z m0 -80 c-3 -8 -6
-5 -6 6 -1 11 2 17 5 13 3 -3 4 -12 1 -19z m0 -130 c-3 -8 -6 -5 -6 6 -1 11 2
17 5 13 3 -3 4 -12 1 -19z m0 -80 c-3 -7 -5 -2 -5 12 0 14 2 19 5 13 2 -7 2
-19 0 -25z m0 -80 c-3 -8 -6 -5 -6 6 -1 11 2 17 5 13 3 -3 4 -12 1 -19z m0
-190 c-3 -8 -6 -5 -6 6 -1 11 2 17 5 13 3 -3 4 -12 1 -19z m0 -90 c-3 -7 -5
-2 -5 12 0 14 2 19 5 13 2 -7 2 -19 0 -25z m0 -120 c-3 -8 -6 -5 -6 6 -1 11 2
17 5 13 3 -3 4 -12 1 -19z m0 -120 c-3 -8 -6 -5 -6 6 -1 11 2 17 5 13 3 -3 4
-12 1 -19z m0 -70 c-3 -8 -6 -5 -6 6 -1 11 2 17 5 13 3 -3 4 -12 1 -19z m0
-80 c-3 -8 -6 -5 -6 6 -1 11 2 17 5 13 3 -3 4 -12 1 -19z m0 -130 c-3 -8 -6
-5 -6 6 -1 11 2 17 5 13 3 -3 4 -12 1 -19z m0 -80 c-3 -7 -5 -2 -5 12 0 14 2
19 5 13 2 -7 2 -19 0 -25z m0 -80 c-3 -8 -6 -5 -6 6 -1 11 2 17 5 13 3 -3 4
-12 1 -19z"/>
</g>
</svg>
